#N canvas 0 23 450 300 10;
#X obj 90 108 inlet~;
#X obj 86 226 dac~;
#X obj 199 121 pack 0 30;
#X obj 90 152 *~;
#X floatatom 7 38 5 0 100 0 - - -, f 5;
#X obj 67 38 bng 15 250 50 0 empty empty empty 17 7 0 10 -262144 -1
-1;
#X msg 246 41 0;
#X obj 199 95 * 0.01;
#X text 6 18 volume - mute;
#X obj 200 147 line~;
#X obj 90 174 clip~ -10 10;
#X obj 372 7 inlet;
#X connect 0 0 3 0;
#X connect 2 0 9 0;
#X connect 3 0 10 0;
#X connect 4 0 7 0;
#X connect 5 0 6 0;
#X connect 6 0 4 0;
#X connect 7 0 2 0;
#X connect 9 0 3 1;
#X connect 10 0 1 0;
#X connect 10 0 1 1;
#X connect 11 0 4 0;
#X coords 0 -1 1 1 100 60 1 0 0;
