#N canvas 0 22 916 827 12;
#X obj 323 27 notein;
#X floatatom 278 65 5 0 0 0 - - -, f 5;
#X floatatom 327 122 5 0 0 0 - - -, f 5;
#X floatatom 486 49 5 0 0 0 - - -, f 5;
#X obj 286 160 pack f f;
#X floatatom 257 215 5 0 0 0 - - -, f 5;
#X floatatom 303 211 5 0 0 0 - - -, f 5;
#X floatatom 348 213 5 0 0 0 - - -, f 5;
#X obj 285 255 pack f f f;
#X obj 285 280 route 1 2 3 4 5 6;
#X obj 232 345 unpack f f;
#X obj 233 369 mtof;
#X obj 301 378 / 64;
#X obj 541 107 outlet~;
#X obj 5 76 hsl 128 15 0 127 0 0 empty empty empty -2 -8 0 10 -262144
-1 -1 0 1;
#X obj 223 416 vcf~, f 8;
#X text 34 42 q value;
#X obj 224 394 noise~;
#X obj 539 50 *~;
#X obj 158 95 sel 0;
#X msg 174 132 0;
#X obj 214 23 loadbang;
#X msg 185 190 1;
#X obj 157 61 mod 2;
#X obj 157 34 + 1;
#X obj 157 9 f 0;
#X obj 300 418 pack f 300;
#X obj 300 443 vline~;
#X obj 234 469 *~;
#X obj 231 504 throw~ add;
#X obj 539 25 catch~ add;
#X obj 223 440 vcf~, f 8;
#X obj 453 343 unpack f f;
#X obj 454 367 mtof;
#X obj 522 376 / 64;
#X obj 444 414 vcf~, f 8;
#X obj 445 392 noise~;
#X obj 521 416 pack f 300;
#X obj 521 441 vline~;
#X obj 455 467 *~;
#X obj 452 502 throw~ add;
#X obj 444 438 vcf~, f 8;
#X obj 641 357 unpack f f;
#X obj 642 381 mtof;
#X obj 710 390 / 64;
#X obj 632 428 vcf~, f 8;
#X obj 633 406 noise~;
#X obj 709 430 pack f 300;
#X obj 709 455 vline~;
#X obj 643 481 *~;
#X obj 640 516 throw~ add;
#X obj 632 452 vcf~, f 8;
#X obj 3 113 s q;
#X obj 169 395 r q;
#X obj 402 387 r q;
#X obj 604 384 r q;
#X obj 286 182 poly 6 1;
#X msg 119 158 0;
#X obj 241 540 unpack f f;
#X obj 242 564 mtof;
#X obj 310 573 / 64;
#X obj 232 611 vcf~, f 8;
#X obj 233 589 noise~;
#X obj 309 613 pack f 300;
#X obj 309 638 vline~;
#X obj 243 664 *~;
#X obj 240 699 throw~ add;
#X obj 232 635 vcf~, f 8;
#X obj 462 538 unpack f f;
#X obj 463 562 mtof;
#X obj 531 571 / 64;
#X obj 453 609 vcf~, f 8;
#X obj 454 587 noise~;
#X obj 530 611 pack f 300;
#X obj 530 636 vline~;
#X obj 464 662 *~;
#X obj 461 697 throw~ add;
#X obj 453 633 vcf~, f 8;
#X obj 650 552 unpack f f;
#X obj 651 576 mtof;
#X obj 719 585 / 64;
#X obj 641 623 vcf~, f 8;
#X obj 642 601 noise~;
#X obj 718 625 pack f 300;
#X obj 718 650 vline~;
#X obj 652 676 *~;
#X obj 649 711 throw~ add;
#X obj 641 647 vcf~, f 8;
#X obj 178 590 r q;
#X obj 411 582 r q;
#X obj 613 579 r q;
#X text 1 55 off;
#X text 99 55 pure;
#X text 18 19 Sub (-) SYNTH;
#X msg 59 272 dsp 1;
#X obj 55 308 s pd;
#X connect 0 0 1 0;
#X connect 0 1 2 0;
#X connect 1 0 4 0;
#X connect 2 0 4 1;
#X connect 3 0 18 1;
#X connect 4 0 56 0;
#X connect 5 0 8 0;
#X connect 6 0 8 1;
#X connect 7 0 8 2;
#X connect 8 0 9 0;
#X connect 9 0 10 0;
#X connect 9 1 58 0;
#X connect 9 2 32 0;
#X connect 9 3 68 0;
#X connect 9 4 42 0;
#X connect 9 5 78 0;
#X connect 10 0 11 0;
#X connect 10 1 12 0;
#X connect 11 0 15 1;
#X connect 11 0 31 1;
#X connect 12 0 26 0;
#X connect 14 0 18 1;
#X connect 14 0 52 0;
#X connect 15 0 31 0;
#X connect 17 0 15 0;
#X connect 18 0 13 0;
#X connect 19 0 20 0;
#X connect 19 1 22 0;
#X connect 20 0 3 0;
#X connect 21 0 20 0;
#X connect 21 0 57 0;
#X connect 21 0 94 0;
#X connect 22 0 3 0;
#X connect 23 0 19 0;
#X connect 23 0 25 1;
#X connect 24 0 23 0;
#X connect 25 0 24 0;
#X connect 26 0 27 0;
#X connect 27 0 28 1;
#X connect 28 0 29 0;
#X connect 30 0 18 0;
#X connect 31 0 28 0;
#X connect 32 0 33 0;
#X connect 32 1 34 0;
#X connect 33 0 35 1;
#X connect 33 0 41 1;
#X connect 34 0 37 0;
#X connect 35 0 41 0;
#X connect 36 0 35 0;
#X connect 37 0 38 0;
#X connect 38 0 39 1;
#X connect 39 0 40 0;
#X connect 41 0 39 0;
#X connect 42 0 43 0;
#X connect 42 1 44 0;
#X connect 43 0 45 1;
#X connect 43 0 51 1;
#X connect 44 0 47 0;
#X connect 45 0 51 0;
#X connect 46 0 45 0;
#X connect 47 0 48 0;
#X connect 48 0 49 1;
#X connect 49 0 50 0;
#X connect 51 0 49 0;
#X connect 53 0 31 2;
#X connect 53 0 15 2;
#X connect 54 0 35 2;
#X connect 54 0 41 2;
#X connect 55 0 45 2;
#X connect 55 0 51 2;
#X connect 56 0 5 0;
#X connect 56 1 6 0;
#X connect 56 2 7 0;
#X connect 57 0 14 0;
#X connect 58 0 59 0;
#X connect 58 1 60 0;
#X connect 59 0 61 1;
#X connect 59 0 67 1;
#X connect 60 0 63 0;
#X connect 61 0 67 0;
#X connect 62 0 61 0;
#X connect 63 0 64 0;
#X connect 64 0 65 1;
#X connect 65 0 66 0;
#X connect 67 0 65 0;
#X connect 68 0 69 0;
#X connect 68 1 70 0;
#X connect 69 0 71 1;
#X connect 69 0 77 1;
#X connect 70 0 73 0;
#X connect 71 0 77 0;
#X connect 72 0 71 0;
#X connect 73 0 74 0;
#X connect 74 0 75 1;
#X connect 75 0 76 0;
#X connect 77 0 75 0;
#X connect 78 0 79 0;
#X connect 78 1 80 0;
#X connect 79 0 81 1;
#X connect 79 0 87 1;
#X connect 80 0 83 0;
#X connect 81 0 87 0;
#X connect 82 0 81 0;
#X connect 83 0 84 0;
#X connect 84 0 85 1;
#X connect 85 0 86 0;
#X connect 87 0 85 0;
#X connect 88 0 67 2;
#X connect 88 0 61 2;
#X connect 89 0 71 2;
#X connect 89 0 77 2;
#X connect 90 0 81 2;
#X connect 90 0 87 2;
#X connect 94 0 95 0;
#X coords 0 -1 1 1 140 100 2 0 0;
