#N canvas 0 23 541 343 10;
#X obj 154 66 subtractivehelper~;
#X obj 154 272 output~;
#X text 73 125 drag q meter to the right to unmute, f 13;
#X msg 172 225 100;
#X obj 172 199 loadbang;
#X text 247 185 Starts output at full volume (unmuted), f 9;
#X connect 0 0 1 0;
#X connect 3 0 1 1;
#X connect 4 0 3 0;
